ffmpeg version 4.2.4-1ubuntu0.1 Copyright (c) 2000-2020 the FFmpeg developers
  built with gcc 9 (Ubuntu 9.3.0-10ubuntu2)
  configuration: --prefix=/usr --extra-version=1ubuntu0.1 --toolchain=hardened --libdir=/usr/lib/x86_64-linux-gnu --incdir=/usr/include/x86_64-linux-gnu --arch=amd64 --enable-gpl --disable-stripping --enable-avresample --disable-filter=resample --enable-avisynth --enable-gnutls --enable-ladspa --enable-libaom --enable-libass --enable-libbluray --enable-libbs2b --enable-libcaca --enable-libcdio --enable-libcodec2 --enable-libflite --enable-libfontconfig --enable-libfreetype --enable-libfribidi --enable-libgme --enable-libgsm --enable-libjack --enable-libmp3lame --enable-libmysofa --enable-libopenjpeg --enable-libopenmpt --enable-libopus --enable-libpulse --enable-librsvg --enable-librubberband --enable-libshine --enable-libsnappy --enable-libsoxr --enable-libspeex --enable-libssh --enable-libtheora --enable-libtwolame --enable-libvidstab --enable-libvorbis --enable-libvpx --enable-libwavpack --enable-libwebp --enable-libx265 --enable-libxml2 --enable-libxvid --enable-libzmq --enable-libzvbi --enable-lv2 --enable-omx --enable-openal --enable-opencl --enable-opengl --enable-sdl2 --enable-libdc1394 --enable-libdrm --enable-libiec61883 --enable-nvenc --enable-chromaprint --enable-frei0r --enable-libx264 --enable-shared
  libavutil      56. 31.100 / 56. 31.100
  libavcodec     58. 54.100 / 58. 54.100
  libavformat    58. 29.100 / 58. 29.100
  libavdevice    58.  8.100 / 58.  8.100
  libavfilter     7. 57.100 /  7. 57.100
  libavresample   4.  0.  0 /  4.  0.  0
  libswscale      5.  5.100 /  5.  5.100
  libswresample   3.  5.100 /  3.  5.100
  libpostproc    55.  5.100 / 55.  5.100
Input #0, image2, from './Cubo/Cubo%02d.png':
  Duration: 00:00:04.00, start: 0.000000, bitrate: N/A
    Stream #0:0: Video: png, rgb24(pc), 320x240, 25 fps, 25 tbr, 25 tbn, 25 tbc
Stream mapping:
  Stream #0:0 -> #0:0 (png (native) -> h264 (libx264))
Press [q] to stop, [?] for help
[libx264 @ 0x55fb8e63da80] using cpu capabilities: MMX2 SSE2Fast SSSE3 SSE4.2 AVX FMA3 BMI2 AVX2
[libx264 @ 0x55fb8e63da80] profile High 4:4:4 Predictive, level 1.2, 4:4:4 8-bit
Output #0, avi, to 'exercici6/cubo_h264_g100_ref0_r6.avi':
  Metadata:
    ISFT            : Lavf58.29.100
    Stream #0:0: Video: h264 (libx264) (H264 / 0x34363248), yuv444p, 320x240, q=-1--1, 6 fps, 6 tbn, 6 tbc
    Metadata:
      encoder         : Lavc58.54.100 libx264
    Side data:
      cpb: bitrate max/min/avg: 0/0/0 buffer size: 0 vbv_delay: -1
frame=   25 fps=0.0 q=-1.0 Lsize=     182kB time=00:00:03.83 bitrate= 388.0kbits/s dup=0 drop=75 speed=34.3x    
video:175kB audio:0kB subtitle:0kB other streams:0kB global headers:0kB muxing overhead: 3.506750%
bench: utime=0.348s stime=0.008s rtime=0.112s
bench: maxrss=77720kB
[libx264 @ 0x55fb8e63da80] frame I:1     Avg QP:23.67  size:  8699
[libx264 @ 0x55fb8e63da80] frame P:23    Avg QP:23.49  size:  7163
[libx264 @ 0x55fb8e63da80] frame B:1     Avg QP:24.70  size:  6169
[libx264 @ 0x55fb8e63da80] consecutive B-frames: 92.0%  8.0%  0.0%  0.0%
[libx264 @ 0x55fb8e63da80] mb I  I16..4: 16.0%  0.0% 84.0%
[libx264 @ 0x55fb8e63da80] mb P  I16..4: 14.7%  0.0% 67.9%  P16..4:  6.3%  6.4%  3.2%  0.0%  0.0%    skip: 1.5%
[libx264 @ 0x55fb8e63da80] mb B  I16..4:  4.0%  0.0% 36.7%  B16..8: 14.0% 26.7%  8.2%  direct: 4.7%  skip: 6.0%  L0:75.3% L1:12.3% BI:12.5%
[libx264 @ 0x55fb8e63da80] coded y,u,v intra: 75.5% 66.6% 70.4% inter: 46.0% 27.9% 34.1%
[libx264 @ 0x55fb8e63da80] i16 v,h,dc,p: 17% 33% 17% 34%
[libx264 @ 0x55fb8e63da80] i4 v,h,dc,ddl,ddr,vr,hd,vl,hu: 26% 13% 16%  8%  6%  8%  5% 12%  5%
[libx264 @ 0x55fb8e63da80] Weighted P-Frames: Y:8.7% UV:4.3%
[libx264 @ 0x55fb8e63da80] kb/s:344.88
